<svg width="13" height="10" viewBox="0 0 13 10" fill="none" xmlns="http://www.w3.org/2000/svg">
<path d="M1.71636e-06 8.19413V3.51656C-0.000108783 3.49574 0.00511788 3.47524 0.0151828 3.45701C0.0252477 3.43878 0.0398152 3.42343 0.057496 3.41243C0.0751767 3.40143 0.0953809 3.39515 0.116181 3.39418C0.136981 3.3932 0.157684 3.39758 0.176314 3.40688L5.40963 6.02394C5.74816 6.19326 6.12148 6.28142 6.5 6.28142C6.87852 6.28142 7.25184 6.19326 7.59038 6.02394L12.8229 3.40769C12.8415 3.39823 12.8622 3.3937 12.883 3.39455C12.9039 3.39539 12.9242 3.40157 12.9419 3.41249C12.9597 3.42342 12.9744 3.43873 12.9846 3.45695C12.9947 3.47517 13 3.4957 13 3.51656V8.19413C13 8.6251 12.8288 9.03843 12.524 9.34318C12.2193 9.64792 11.806 9.81913 11.375 9.81913H1.625C1.19402 9.81913 0.7807 9.64792 0.475953 9.34318C0.171206 9.03843 1.71636e-06 8.6251 1.71636e-06 8.19413Z" fill="#001145"/>
<path d="M0 1.69434V2.43127C3.09319e-05 2.45389 0.00635536 2.47605 0.0182654 2.49528C0.0301754 2.51451 0.0472013 2.53005 0.0674376 2.54015L5.40962 5.21165C5.74816 5.38097 6.12148 5.46913 6.5 5.46913C6.87852 5.46913 7.25184 5.38097 7.59037 5.21165L12.9326 2.54015C12.9528 2.53005 12.9698 2.51451 12.9817 2.49528C12.9936 2.47605 13 2.45389 13 2.43127V1.69434C13 1.26336 12.8288 0.850034 12.524 0.545287C12.2193 0.240541 11.806 0.0693359 11.375 0.0693359H1.625C1.19402 0.0693359 0.780698 0.240541 0.475951 0.545287C0.171205 0.850034 0 1.26336 0 1.69434Z" fill="#E5E5E5"/>
</svg>
