<svg width="23" height="23" viewBox="0 0 23 23" fill="none" xmlns="http://www.w3.org/2000/svg">
<path d="M16.7708 6.229H16.7804M6.70832 1.9165H16.2917C18.938 1.9165 21.0833 4.06181 21.0833 6.70817V16.2915C21.0833 18.9379 18.938 21.0832 16.2917 21.0832H6.70832C4.06196 21.0832 1.91666 18.9379 1.91666 16.2915V6.70817C1.91666 4.06181 4.06196 1.9165 6.70832 1.9165ZM15.3333 10.8961C15.4516 11.6937 15.3154 12.5082 14.944 13.2239C14.5727 13.9396 13.9851 14.5199 13.2649 14.8824C12.5447 15.2449 11.7285 15.3711 10.9325 15.243C10.1364 15.1149 9.40101 14.7391 8.83088 14.169C8.26074 13.5988 7.8849 12.8634 7.7568 12.0674C7.62871 11.2713 7.75489 10.4552 8.11739 9.73495C8.47989 9.01474 9.06025 8.42717 9.77593 8.05582C10.4916 7.68447 11.3062 7.54823 12.1037 7.6665C12.9173 7.78714 13.6705 8.16624 14.252 8.7478C14.8336 9.32936 15.2127 10.0825 15.3333 10.8961Z" stroke="#001145" stroke-width="1.5" stroke-linecap="round" stroke-linejoin="round"/>
</svg>
