<svg width="23" height="23" viewBox="0 0 23 23" fill="none" xmlns="http://www.w3.org/2000/svg">
<path d="M15.3334 7.6665C16.8583 7.6665 18.3209 8.27231 19.3992 9.35064C20.4776 10.429 21.0834 11.8915 21.0834 13.4165V20.1248H17.25V13.4165C17.25 12.9082 17.0481 12.4207 16.6886 12.0612C16.3292 11.7018 15.8417 11.4998 15.3334 11.4998C14.825 11.4998 14.3375 11.7018 13.9781 12.0612C13.6186 12.4207 13.4167 12.9082 13.4167 13.4165V20.1248H9.58335V13.4165C9.58335 11.8915 10.1892 10.429 11.2675 9.35064C12.3458 8.27231 13.8084 7.6665 15.3334 7.6665Z" stroke="#001145" stroke-width="1.5" stroke-linecap="round" stroke-linejoin="round"/>
<path d="M5.75002 8.62484H1.91669V20.1248H5.75002V8.62484Z" stroke="#001145" stroke-width="1.5" stroke-linecap="round" stroke-linejoin="round"/>
<path d="M3.83335 5.74984C4.8919 5.74984 5.75002 4.89172 5.75002 3.83317C5.75002 2.77462 4.8919 1.9165 3.83335 1.9165C2.77481 1.9165 1.91669 2.77462 1.91669 3.83317C1.91669 4.89172 2.77481 5.74984 3.83335 5.74984Z" stroke="#001145" stroke-width="1.5" stroke-linecap="round" stroke-linejoin="round"/>
</svg>
