<svg width="13" height="16" viewBox="0 0 13 16" fill="none" xmlns="http://www.w3.org/2000/svg">
<path d="M6.5 0C4.77672 0.00195233 3.1246 0.660224 1.90605 1.83041C0.687509 3.00061 0.00203708 4.58716 4.07974e-06 6.24206C-0.00158035 7.59437 0.458376 8.90992 1.30946 9.9873C1.30946 9.9873 1.48673 10.2114 1.51569 10.2438L6.5 15.8889L11.4867 10.241C11.5127 10.2109 11.6905 9.9873 11.6905 9.9873L11.6911 9.9856C12.5416 8.90861 13.0014 7.59373 13 6.24206C12.998 4.58716 12.3125 3.00061 11.0939 1.83041C9.8754 0.660224 8.22328 0.00195233 6.5 0ZM6.5 8.51191C6.03252 8.51191 5.57553 8.37878 5.18684 8.12937C4.79814 7.87995 4.49518 7.52545 4.31629 7.11069C4.13739 6.69594 4.09058 6.23955 4.18178 5.79924C4.27298 5.35893 4.4981 4.95449 4.82866 4.63704C5.15922 4.3196 5.58038 4.10342 6.03888 4.01584C6.49738 3.92825 6.97263 3.9732 7.40452 4.145C7.83642 4.3168 8.20557 4.60773 8.46529 4.98101C8.72501 5.35428 8.86364 5.79313 8.86364 6.24206C8.86285 6.84383 8.61358 7.42074 8.17048 7.84625C7.72738 8.27177 7.12664 8.51115 6.5 8.51191Z" fill="#001145"/>
</svg>
