<svg width="13" height="14" viewBox="0 0 13 14" fill="none" xmlns="http://www.w3.org/2000/svg">
<path d="M11.7263 9.3094L9.88811 9.09954C9.67198 9.07415 9.4529 9.09808 9.24734 9.16952C9.04178 9.24097 8.85508 9.35807 8.70128 9.51203L7.36971 10.8436C5.31547 9.79856 3.6457 8.1288 2.60067 6.07456L3.93947 4.73575C4.25065 4.42457 4.40263 3.99036 4.35197 3.54892L4.1421 1.72525C4.10122 1.37216 3.93185 1.04646 3.66626 0.810225C3.40066 0.573995 3.05743 0.443757 2.70198 0.444338H1.45002C0.632259 0.444338 -0.0479991 1.1246 0.00265842 1.94235C0.386208 8.12257 5.32894 13.0581 11.5019 13.4416C12.3197 13.4923 12.9999 12.812 12.9999 11.9943V10.7423C13.0072 10.0114 12.4572 9.39625 11.7263 9.3094Z" fill="#001145"/>
</svg>
