<svg width="23" height="23" viewBox="0 0 23 23" fill="none" xmlns="http://www.w3.org/2000/svg">
<path d="M22.0417 2.87487C21.124 3.5222 20.1079 4.01731 19.0325 4.34112C18.4553 3.67749 17.6883 3.20712 16.8351 2.99363C15.9819 2.78015 15.0837 2.83385 14.262 3.14747C13.4403 3.46109 12.7348 4.01951 12.2408 4.74718C11.7468 5.47486 11.4882 6.33669 11.5 7.21612V8.17445C9.81587 8.21812 8.14706 7.84461 6.64223 7.08717C5.13739 6.32974 3.84323 5.2119 2.87501 3.8332C2.87501 3.8332 -0.958323 12.4582 7.66668 16.2915C5.69302 17.6313 3.34187 18.303 0.958344 18.2082C9.58334 22.9999 20.125 18.2082 20.125 7.18737C20.1241 6.92043 20.0985 6.65415 20.0483 6.39195C21.0264 5.42739 21.7166 4.20955 22.0417 2.87487Z" stroke="#001145" stroke-width="1.5" stroke-linecap="round" stroke-linejoin="round"/>
</svg>
